<mxfile host="Electron" agent="Mozilla/5.0 (Windows NT 10.0; Win64; x64) AppleWebKit/537.36 (KHTML, like Gecko) draw.io/24.7.5 Chrome/126.0.6478.183 Electron/31.3.0 Safari/537.36" version="24.7.5" pages="3">
  <diagram name="Main" id="z_qVd1KZJYBcLqZSe_iI">
    <mxGraphModel dx="1434" dy="844" grid="1" gridSize="10" guides="1" tooltips="1" connect="1" arrows="1" fold="1" page="1" pageScale="1" pageWidth="1169" pageHeight="827" math="0" shadow="0">
      <root>
        <mxCell id="0" />
        <mxCell id="1" parent="0" />
        <mxCell id="xsOsGMcdbyZTxs_sAXih-1" value="" style="rounded=0;whiteSpace=wrap;html=1;" parent="1" vertex="1">
          <mxGeometry x="120" y="80" width="1000" height="680" as="geometry" />
        </mxCell>
        <mxCell id="xsOsGMcdbyZTxs_sAXih-2" value="" style="rounded=1;whiteSpace=wrap;html=1;" parent="1" vertex="1">
          <mxGeometry x="310" y="250" width="620" height="450" as="geometry" />
        </mxCell>
        <mxCell id="xsOsGMcdbyZTxs_sAXih-3" value="&lt;h1 style=&quot;margin-top: 0px;&quot;&gt;Dizel Yakıt Pompası Ek Modülü Kart Diyagramı&lt;/h1&gt;" style="text;html=1;whiteSpace=wrap;overflow=hidden;rounded=0;" parent="1" vertex="1">
          <mxGeometry x="130" y="90" width="930" height="120" as="geometry" />
        </mxCell>
        <mxCell id="xsOsGMcdbyZTxs_sAXih-4" value="Basınç Sensörü&lt;div style=&quot;text-align: start;&quot;&gt;&lt;font face=&quot;Roboto Condensed, sans-serif&quot;&gt;DFRobot&amp;nbsp;&lt;/font&gt;&lt;span style=&quot;background-color: initial; text-align: center;&quot;&gt;&lt;font face=&quot;Roboto Condensed, sans-serif&quot;&gt;SEN0257&lt;/font&gt;&lt;/span&gt;&lt;br&gt;&lt;/div&gt;" style="rounded=1;whiteSpace=wrap;html=1;" parent="1" vertex="1">
          <mxGeometry x="140" y="425" width="120" height="60" as="geometry" />
        </mxCell>
        <mxCell id="xsOsGMcdbyZTxs_sAXih-5" value="ADC" style="rounded=1;whiteSpace=wrap;html=1;fillColor=#f0a30a;fontColor=#000000;strokeColor=#BD7000;" parent="1" vertex="1">
          <mxGeometry x="320" y="425" width="120" height="60" as="geometry" />
        </mxCell>
        <mxCell id="xsOsGMcdbyZTxs_sAXih-6" value="Yakıt Kesici&lt;div&gt;(LPG Valf)&lt;/div&gt;" style="rounded=1;whiteSpace=wrap;html=1;" parent="1" vertex="1">
          <mxGeometry x="140" y="510" width="120" height="60" as="geometry" />
        </mxCell>
        <mxCell id="xsOsGMcdbyZTxs_sAXih-7" value="Relay" style="rounded=1;whiteSpace=wrap;html=1;fillColor=#647687;fontColor=#ffffff;strokeColor=#314354;" parent="1" vertex="1">
          <mxGeometry x="320" y="510" width="120" height="60" as="geometry" />
        </mxCell>
        <mxCell id="xsOsGMcdbyZTxs_sAXih-8" value="GSM&lt;div&gt;SIM800L&lt;/div&gt;&lt;div&gt;HZ-MG2608-C1A-MK-02&lt;br&gt;&lt;/div&gt;" style="rounded=1;whiteSpace=wrap;html=1;fillColor=#e1d5e7;strokeColor=#9673a6;" parent="1" vertex="1">
          <mxGeometry x="787" y="340" width="120" height="120" as="geometry" />
        </mxCell>
        <mxCell id="xsOsGMcdbyZTxs_sAXih-9" value="PWR" style="ellipse;whiteSpace=wrap;html=1;aspect=fixed;fillColor=#dae8fc;strokeColor=#6c8ebf;" parent="1" vertex="1">
          <mxGeometry x="720" y="270" width="30" height="30" as="geometry" />
        </mxCell>
        <mxCell id="xsOsGMcdbyZTxs_sAXih-10" value="STAT" style="ellipse;whiteSpace=wrap;html=1;aspect=fixed;fillColor=#d5e8d4;strokeColor=#82b366;" parent="1" vertex="1">
          <mxGeometry x="760" y="270" width="30" height="30" as="geometry" />
        </mxCell>
        <mxCell id="xsOsGMcdbyZTxs_sAXih-11" value="ERR" style="ellipse;whiteSpace=wrap;html=1;aspect=fixed;fillColor=#f8cecc;strokeColor=#b85450;" parent="1" vertex="1">
          <mxGeometry x="800" y="270" width="30" height="30" as="geometry" />
        </mxCell>
        <mxCell id="xsOsGMcdbyZTxs_sAXih-12" value="ACTIVE" style="rounded=1;whiteSpace=wrap;html=1;fillColor=#f5f5f5;fontColor=#333333;strokeColor=#666666;" parent="1" vertex="1">
          <mxGeometry x="541" y="270" width="80" height="30" as="geometry" />
        </mxCell>
        <mxCell id="xsOsGMcdbyZTxs_sAXih-13" value="DEACTIVE" style="rounded=1;whiteSpace=wrap;html=1;fillColor=#f5f5f5;fontColor=#333333;strokeColor=#666666;" parent="1" vertex="1">
          <mxGeometry x="632" y="270" width="80" height="30" as="geometry" />
        </mxCell>
        <mxCell id="xsOsGMcdbyZTxs_sAXih-14" value="I/O" style="rounded=1;whiteSpace=wrap;html=1;fillColor=#f5f5f5;fontColor=#333333;strokeColor=#666666;" parent="1" vertex="1">
          <mxGeometry x="450" y="270" width="80" height="30" as="geometry" />
        </mxCell>
        <mxCell id="xsOsGMcdbyZTxs_sAXih-15" value="MCU&lt;br&gt;(STM32F103RC)" style="rounded=1;whiteSpace=wrap;html=1;fillColor=#6d8764;fontColor=#ffffff;strokeColor=#3A5431;" parent="1" vertex="1">
          <mxGeometry x="540" y="370" width="160" height="170" as="geometry" />
        </mxCell>
        <mxCell id="xsOsGMcdbyZTxs_sAXih-17" value="" style="shape=flexArrow;endArrow=classic;html=1;rounded=0;exitX=1;exitY=0.5;exitDx=0;exitDy=0;" parent="1" source="xsOsGMcdbyZTxs_sAXih-4" target="xsOsGMcdbyZTxs_sAXih-5" edge="1">
          <mxGeometry width="50" height="50" relative="1" as="geometry">
            <mxPoint x="560" y="410" as="sourcePoint" />
            <mxPoint x="610" y="360" as="targetPoint" />
          </mxGeometry>
        </mxCell>
        <mxCell id="xsOsGMcdbyZTxs_sAXih-18" value="" style="shape=flexArrow;endArrow=classic;html=1;rounded=0;exitX=0;exitY=0.5;exitDx=0;exitDy=0;entryX=1;entryY=0.5;entryDx=0;entryDy=0;" parent="1" source="xsOsGMcdbyZTxs_sAXih-7" target="xsOsGMcdbyZTxs_sAXih-6" edge="1">
          <mxGeometry width="50" height="50" relative="1" as="geometry">
            <mxPoint x="560" y="410" as="sourcePoint" />
            <mxPoint x="610" y="360" as="targetPoint" />
          </mxGeometry>
        </mxCell>
        <mxCell id="xsOsGMcdbyZTxs_sAXih-19" value="POWER" style="rounded=1;whiteSpace=wrap;html=1;" parent="1" vertex="1">
          <mxGeometry x="787" y="480" width="120" height="140" as="geometry" />
        </mxCell>
        <mxCell id="xsOsGMcdbyZTxs_sAXih-20" value="RS-232" style="rounded=1;whiteSpace=wrap;html=1;fillColor=#e1d5e7;strokeColor=#9673a6;" parent="1" vertex="1">
          <mxGeometry x="370" y="620" width="120" height="60" as="geometry" />
        </mxCell>
        <mxCell id="xsOsGMcdbyZTxs_sAXih-21" value="RS-485" style="rounded=1;whiteSpace=wrap;html=1;fillColor=#e1d5e7;strokeColor=#9673a6;" parent="1" vertex="1">
          <mxGeometry x="501" y="620" width="120" height="60" as="geometry" />
        </mxCell>
        <mxCell id="xsOsGMcdbyZTxs_sAXih-22" value="EXP" style="rounded=1;whiteSpace=wrap;html=1;fillColor=#f5f5f5;strokeColor=#666666;fontColor=#333333;" parent="1" vertex="1">
          <mxGeometry x="640" y="620" width="120" height="60" as="geometry" />
        </mxCell>
        <mxCell id="xsOsGMcdbyZTxs_sAXih-23" value="&lt;h1 style=&quot;margin-top: 0px;&quot;&gt;EXP&lt;/h1&gt;&lt;p&gt;&lt;/p&gt;&lt;ul&gt;&lt;li&gt;1xI2C&lt;/li&gt;&lt;li&gt;1xSPI&lt;/li&gt;&lt;li&gt;1xUART&lt;/li&gt;&lt;li&gt;1x3V3&lt;/li&gt;&lt;li&gt;1x5V&lt;/li&gt;&lt;li&gt;3xGND&lt;/li&gt;&lt;/ul&gt;&lt;p&gt;&lt;/p&gt;" style="text;html=1;whiteSpace=wrap;overflow=hidden;rounded=0;" parent="1" vertex="1">
          <mxGeometry x="950" y="280" width="160" height="150" as="geometry" />
        </mxCell>
        <mxCell id="xsOsGMcdbyZTxs_sAXih-24" value="&lt;h1 style=&quot;margin-top: 0px;&quot;&gt;INTERFACE&lt;/h1&gt;&lt;p&gt;&lt;/p&gt;&lt;ul&gt;&lt;li&gt;1xI2C&lt;/li&gt;&lt;li&gt;1xSPI&lt;/li&gt;&lt;li&gt;4xUART&lt;br&gt;&lt;/li&gt;&lt;/ul&gt;&lt;p&gt;&lt;/p&gt;" style="text;html=1;whiteSpace=wrap;overflow=hidden;rounded=0;" parent="1" vertex="1">
          <mxGeometry x="950" y="440" width="160" height="150" as="geometry" />
        </mxCell>
        <mxCell id="xsOsGMcdbyZTxs_sAXih-25" value="USB" style="rounded=1;whiteSpace=wrap;html=1;fillColor=#f5f5f5;fontColor=#333333;strokeColor=#666666;" parent="1" vertex="1">
          <mxGeometry x="320" y="340" width="120" height="60" as="geometry" />
        </mxCell>
      </root>
    </mxGraphModel>
  </diagram>
  <diagram name="System" id="i9t7z6Udsv9bwwXvzqYk">
    <mxGraphModel dx="1257" dy="760" grid="1" gridSize="10" guides="1" tooltips="1" connect="1" arrows="1" fold="1" page="1" pageScale="1" pageWidth="1169" pageHeight="827" math="0" shadow="0">
      <root>
        <mxCell id="hd1AN3d5d5kz8yqUC4JS-0" />
        <mxCell id="hd1AN3d5d5kz8yqUC4JS-1" parent="hd1AN3d5d5kz8yqUC4JS-0" />
        <mxCell id="hd1AN3d5d5kz8yqUC4JS-3" value="Control Card" style="rounded=1;whiteSpace=wrap;html=1;" parent="hd1AN3d5d5kz8yqUC4JS-1" vertex="1">
          <mxGeometry x="440" y="180" width="310" height="210" as="geometry" />
        </mxCell>
        <mxCell id="hd1AN3d5d5kz8yqUC4JS-4" value="&lt;h1 style=&quot;margin-top: 0px;&quot;&gt;Dizel Su Pompası Ek Modülü Çalışma Prensibi&lt;/h1&gt;&lt;p&gt;Aşağıdaki şemada sistemin çalışma prensibi detaylarıyla gösterilmiştir.&lt;/p&gt;" style="text;html=1;whiteSpace=wrap;overflow=hidden;rounded=0;" parent="hd1AN3d5d5kz8yqUC4JS-1" vertex="1">
          <mxGeometry x="210" y="30" width="930" height="120" as="geometry" />
        </mxCell>
        <mxCell id="9Bky2_1eXqrfAGrDvFZs-0" value="" style="group" parent="hd1AN3d5d5kz8yqUC4JS-1" vertex="1" connectable="0">
          <mxGeometry x="700" y="250" width="80" height="60" as="geometry" />
        </mxCell>
        <mxCell id="9Bky2_1eXqrfAGrDvFZs-1" value="&lt;font style=&quot;font-size: 10px;&quot;&gt;RELAY&lt;/font&gt;" style="rounded=1;whiteSpace=wrap;html=1;fillColor=#dae8fc;strokeColor=#6c8ebf;" parent="9Bky2_1eXqrfAGrDvFZs-0" vertex="1">
          <mxGeometry width="50" height="60" as="geometry" />
        </mxCell>
        <mxCell id="9Bky2_1eXqrfAGrDvFZs-2" value="" style="endArrow=none;html=1;rounded=0;exitX=0.96;exitY=0.167;exitDx=0;exitDy=0;exitPerimeter=0;entryX=0.66;entryY=0.265;entryDx=0;entryDy=0;entryPerimeter=0;fillColor=#dae8fc;strokeColor=#6c8ebf;" parent="9Bky2_1eXqrfAGrDvFZs-0" edge="1">
          <mxGeometry width="50" height="50" relative="1" as="geometry">
            <mxPoint x="50" y="10.019999999999982" as="sourcePoint" />
            <mxPoint x="80" y="10" as="targetPoint" />
          </mxGeometry>
        </mxCell>
        <mxCell id="9Bky2_1eXqrfAGrDvFZs-3" value="NO" style="edgeLabel;html=1;align=center;verticalAlign=middle;resizable=0;points=[];" parent="9Bky2_1eXqrfAGrDvFZs-2" vertex="1" connectable="0">
          <mxGeometry x="0.0889" relative="1" as="geometry">
            <mxPoint as="offset" />
          </mxGeometry>
        </mxCell>
        <mxCell id="9Bky2_1eXqrfAGrDvFZs-4" value="" style="endArrow=none;html=1;rounded=0;exitX=0.96;exitY=0.167;exitDx=0;exitDy=0;exitPerimeter=0;fillColor=#dae8fc;strokeColor=#6c8ebf;" parent="9Bky2_1eXqrfAGrDvFZs-0" edge="1">
          <mxGeometry width="50" height="50" relative="1" as="geometry">
            <mxPoint x="50" y="29.95999999999998" as="sourcePoint" />
            <mxPoint x="80" y="30" as="targetPoint" />
          </mxGeometry>
        </mxCell>
        <mxCell id="9Bky2_1eXqrfAGrDvFZs-5" value="C" style="edgeLabel;html=1;align=center;verticalAlign=middle;resizable=0;points=[];" parent="9Bky2_1eXqrfAGrDvFZs-4" vertex="1" connectable="0">
          <mxGeometry x="0.0542" relative="1" as="geometry">
            <mxPoint as="offset" />
          </mxGeometry>
        </mxCell>
        <mxCell id="NwV31tU4JHG0IHadNAmp-0" value="" style="group" parent="hd1AN3d5d5kz8yqUC4JS-1" vertex="1" connectable="0">
          <mxGeometry x="410" y="250" width="80" height="60" as="geometry" />
        </mxCell>
        <mxCell id="NwV31tU4JHG0IHadNAmp-1" value="ADC" style="rounded=1;whiteSpace=wrap;html=1;fillColor=#fff2cc;strokeColor=#d6b656;" parent="NwV31tU4JHG0IHadNAmp-0" vertex="1">
          <mxGeometry x="30" width="50" height="60" as="geometry" />
        </mxCell>
        <mxCell id="NwV31tU4JHG0IHadNAmp-2" value="" style="endArrow=none;html=1;rounded=0;entryX=0;entryY=0.5;entryDx=0;entryDy=0;fillColor=#fff2cc;strokeColor=#d6b656;" parent="NwV31tU4JHG0IHadNAmp-0" target="NwV31tU4JHG0IHadNAmp-1" edge="1">
          <mxGeometry width="50" height="50" relative="1" as="geometry">
            <mxPoint y="30" as="sourcePoint" />
            <mxPoint x="70" y="10" as="targetPoint" />
          </mxGeometry>
        </mxCell>
        <mxCell id="NwV31tU4JHG0IHadNAmp-5" value="WATER PIPE" style="rounded=0;whiteSpace=wrap;html=1;" parent="hd1AN3d5d5kz8yqUC4JS-1" vertex="1">
          <mxGeometry x="250" y="620" width="910" height="60" as="geometry" />
        </mxCell>
        <mxCell id="NwV31tU4JHG0IHadNAmp-6" value="PRESSURE SENSOR" style="rounded=0;whiteSpace=wrap;html=1;horizontal=0;fontSize=7;" parent="hd1AN3d5d5kz8yqUC4JS-1" vertex="1">
          <mxGeometry x="300" y="560" width="20" height="60" as="geometry" />
        </mxCell>
        <mxCell id="NwV31tU4JHG0IHadNAmp-7" value="" style="endArrow=classic;html=1;rounded=0;exitX=0.5;exitY=0;exitDx=0;exitDy=0;endFill=1;" parent="hd1AN3d5d5kz8yqUC4JS-1" source="NwV31tU4JHG0IHadNAmp-6" edge="1">
          <mxGeometry width="50" height="50" relative="1" as="geometry">
            <mxPoint x="370" y="530" as="sourcePoint" />
            <mxPoint x="410" y="280" as="targetPoint" />
            <Array as="points">
              <mxPoint x="310" y="280" />
            </Array>
          </mxGeometry>
        </mxCell>
        <mxCell id="NwV31tU4JHG0IHadNAmp-8" value="0-5V" style="edgeLabel;html=1;align=center;verticalAlign=middle;resizable=0;points=[];horizontal=0;" parent="NwV31tU4JHG0IHadNAmp-7" vertex="1" connectable="0">
          <mxGeometry x="-0.1486" relative="1" as="geometry">
            <mxPoint as="offset" />
          </mxGeometry>
        </mxCell>
        <mxCell id="oYKG7SAVJAFG4u_lUfUL-3" value="Dizel Engine&lt;hr&gt;" style="outlineConnect=0;dashed=0;verticalLabelPosition=bottom;verticalAlign=top;align=center;html=1;shape=mxgraph.aws3.emr_engine;fillColor=#F58534;gradientColor=none;" parent="hd1AN3d5d5kz8yqUC4JS-1" vertex="1">
          <mxGeometry x="940" y="369" width="140" height="90" as="geometry" />
        </mxCell>
        <mxCell id="oYKG7SAVJAFG4u_lUfUL-4" value="Fuel Pipe" style="rounded=0;whiteSpace=wrap;html=1;rotation=90;horizontal=1;" parent="hd1AN3d5d5kz8yqUC4JS-1" vertex="1">
          <mxGeometry x="1063.5" y="341.5" width="155" height="10" as="geometry" />
        </mxCell>
        <mxCell id="oYKG7SAVJAFG4u_lUfUL-5" value="" style="rounded=0;whiteSpace=wrap;html=1;rotation=-180;" parent="hd1AN3d5d5kz8yqUC4JS-1" vertex="1">
          <mxGeometry x="1080" y="414" width="60" height="10" as="geometry" />
        </mxCell>
        <mxCell id="oYKG7SAVJAFG4u_lUfUL-6" value="Fuel Pipe" style="rounded=0;whiteSpace=wrap;html=1;rotation=90;horizontal=1;" parent="hd1AN3d5d5kz8yqUC4JS-1" vertex="1">
          <mxGeometry x="1091.25" y="180" width="97.5" height="10" as="geometry" />
        </mxCell>
        <mxCell id="eWgS5YxnviFs063v181v-10" value="" style="verticalLabelPosition=bottom;verticalAlign=top;html=1;shape=mxgraph.basic.donut;dx=25;" parent="hd1AN3d5d5kz8yqUC4JS-1" vertex="1">
          <mxGeometry x="1105" y="220" width="70" height="70" as="geometry" />
        </mxCell>
        <mxCell id="eWgS5YxnviFs063v181v-11" value="" style="endArrow=none;html=1;rounded=0;entryX=0.018;entryY=0.369;entryDx=0;entryDy=0;entryPerimeter=0;exitX=1;exitY=0.286;exitDx=0;exitDy=0;exitPerimeter=0;" parent="hd1AN3d5d5kz8yqUC4JS-1" source="hd1AN3d5d5kz8yqUC4JS-3" target="eWgS5YxnviFs063v181v-10" edge="1">
          <mxGeometry width="50" height="50" relative="1" as="geometry">
            <mxPoint x="1040" y="246" as="sourcePoint" />
            <mxPoint x="1110" y="306" as="targetPoint" />
            <Array as="points">
              <mxPoint x="770" y="250" />
              <mxPoint x="1090" y="246" />
            </Array>
          </mxGeometry>
        </mxCell>
        <mxCell id="eWgS5YxnviFs063v181v-12" value="GND" style="edgeLabel;html=1;align=center;verticalAlign=middle;resizable=0;points=[];" parent="eWgS5YxnviFs063v181v-11" vertex="1" connectable="0">
          <mxGeometry x="-0.2905" relative="1" as="geometry">
            <mxPoint as="offset" />
          </mxGeometry>
        </mxCell>
        <mxCell id="9Bky2_1eXqrfAGrDvFZs-6" value="" style="endArrow=none;html=1;rounded=0;exitX=0.992;exitY=0.786;exitDx=0;exitDy=0;exitPerimeter=0;fillColor=#dae8fc;strokeColor=#6c8ebf;" parent="hd1AN3d5d5kz8yqUC4JS-1" source="9Bky2_1eXqrfAGrDvFZs-1" target="eWgS5YxnviFs063v181v-10" edge="1">
          <mxGeometry width="50" height="50" relative="1" as="geometry">
            <mxPoint x="750" y="300" as="sourcePoint" />
            <mxPoint x="780" y="297" as="targetPoint" />
            <Array as="points">
              <mxPoint x="1080" y="290" />
            </Array>
          </mxGeometry>
        </mxCell>
        <mxCell id="9Bky2_1eXqrfAGrDvFZs-7" value="NC" style="edgeLabel;html=1;align=center;verticalAlign=middle;resizable=0;points=[];" parent="9Bky2_1eXqrfAGrDvFZs-6" vertex="1" connectable="0">
          <mxGeometry x="0.0792" relative="1" as="geometry">
            <mxPoint x="-175" y="19" as="offset" />
          </mxGeometry>
        </mxCell>
        <mxCell id="jP-44_YjTH0RPXP_Xvoh-5" value="Vin" style="text;html=1;strokeColor=none;fillColor=none;align=center;verticalAlign=middle;whiteSpace=wrap;rounded=0;" parent="hd1AN3d5d5kz8yqUC4JS-1" vertex="1">
          <mxGeometry x="1105" y="254" width="20" height="10" as="geometry" />
        </mxCell>
        <mxCell id="jP-44_YjTH0RPXP_Xvoh-6" value="Fuel Tank" style="ellipse;whiteSpace=wrap;html=1;" parent="hd1AN3d5d5kz8yqUC4JS-1" vertex="1">
          <mxGeometry x="1088.5" y="74" width="105" height="66" as="geometry" />
        </mxCell>
        <mxCell id="jP-44_YjTH0RPXP_Xvoh-9" value="centrifugal" style="verticalLabelPosition=bottom;verticalAlign=top;html=1;shape=mxgraph.basic.partConcEllipse;startAngle=0.25;endAngle=0.1;arcWidth=0.5;fontSize=12;" parent="hd1AN3d5d5kz8yqUC4JS-1" vertex="1">
          <mxGeometry x="950" y="590" width="80" height="70" as="geometry" />
        </mxCell>
        <mxCell id="jP-44_YjTH0RPXP_Xvoh-12" value="" style="endArrow=classic;html=1;rounded=0;fontSize=12;exitX=0;exitY=0.86;exitDx=0;exitDy=0;exitPerimeter=0;horizontal=1;align=center;verticalAlign=top;" parent="hd1AN3d5d5kz8yqUC4JS-1" source="oYKG7SAVJAFG4u_lUfUL-3" target="jP-44_YjTH0RPXP_Xvoh-9" edge="1">
          <mxGeometry width="50" height="50" relative="1" as="geometry">
            <mxPoint x="790" y="540" as="sourcePoint" />
            <mxPoint x="840" y="490" as="targetPoint" />
          </mxGeometry>
        </mxCell>
        <mxCell id="jP-44_YjTH0RPXP_Xvoh-14" value="&lt;div style=&quot;text-align: justify;&quot;&gt;mechanical transmission&lt;/div&gt;" style="edgeLabel;html=1;align=center;verticalAlign=middle;resizable=0;points=[];fontSize=12;" parent="jP-44_YjTH0RPXP_Xvoh-12" vertex="1" connectable="0">
          <mxGeometry x="0.0987" y="-1" relative="1" as="geometry">
            <mxPoint x="1" as="offset" />
          </mxGeometry>
        </mxCell>
        <mxCell id="jP-44_YjTH0RPXP_Xvoh-15" value="" style="image;html=1;image=img/lib/clip_art/general/Battery_allstates_128x128.png;fontSize=12;" parent="hd1AN3d5d5kz8yqUC4JS-1" vertex="1">
          <mxGeometry x="930" y="110" width="60" height="70" as="geometry" />
        </mxCell>
        <mxCell id="jP-44_YjTH0RPXP_Xvoh-16" value="Battery" style="image;html=1;image=img/lib/clip_art/general/Battery_allstates_128x128.png;fontSize=12;" parent="hd1AN3d5d5kz8yqUC4JS-1" vertex="1">
          <mxGeometry x="960" y="110" width="60" height="70" as="geometry" />
        </mxCell>
        <mxCell id="jP-44_YjTH0RPXP_Xvoh-19" value="Manuel Ignition" style="aspect=fixed;perimeter=ellipsePerimeter;html=1;align=center;shadow=0;dashed=0;fontColor=#4277BB;labelBackgroundColor=#ffffff;fontSize=12;spacingTop=3;image;image=img/lib/ibm/vpc/Key.svg;" parent="hd1AN3d5d5kz8yqUC4JS-1" vertex="1">
          <mxGeometry x="840" y="125" width="40" height="40" as="geometry" />
        </mxCell>
        <mxCell id="jP-44_YjTH0RPXP_Xvoh-20" value="" style="endArrow=none;html=1;rounded=0;fontSize=12;entryX=0.75;entryY=0;entryDx=0;entryDy=0;horizontal=1;verticalAlign=top;" parent="hd1AN3d5d5kz8yqUC4JS-1" target="jP-44_YjTH0RPXP_Xvoh-19" edge="1">
          <mxGeometry width="50" height="50" relative="1" as="geometry">
            <mxPoint x="960" y="110" as="sourcePoint" />
            <mxPoint x="1010" y="60" as="targetPoint" />
          </mxGeometry>
        </mxCell>
        <mxCell id="jP-44_YjTH0RPXP_Xvoh-23" value="VCC" style="edgeLabel;html=1;align=center;verticalAlign=middle;resizable=0;points=[];fontSize=12;" parent="jP-44_YjTH0RPXP_Xvoh-20" vertex="1" connectable="0">
          <mxGeometry x="0.5649" y="1" relative="1" as="geometry">
            <mxPoint as="offset" />
          </mxGeometry>
        </mxCell>
        <mxCell id="jP-44_YjTH0RPXP_Xvoh-21" value="" style="endArrow=none;html=1;rounded=0;fontSize=12;entryX=1.001;entryY=0.165;entryDx=0;entryDy=0;entryPerimeter=0;" parent="hd1AN3d5d5kz8yqUC4JS-1" target="hd1AN3d5d5kz8yqUC4JS-3" edge="1">
          <mxGeometry width="50" height="50" relative="1" as="geometry">
            <mxPoint x="985" y="110" as="sourcePoint" />
            <mxPoint x="1035" y="60" as="targetPoint" />
            <Array as="points">
              <mxPoint x="750" y="110" />
            </Array>
          </mxGeometry>
        </mxCell>
        <mxCell id="jP-44_YjTH0RPXP_Xvoh-22" value="GND" style="text;html=1;strokeColor=none;fillColor=none;align=center;verticalAlign=middle;whiteSpace=wrap;rounded=0;fontSize=12;" parent="hd1AN3d5d5kz8yqUC4JS-1" vertex="1">
          <mxGeometry x="705" y="194" width="60" height="30" as="geometry" />
        </mxCell>
        <mxCell id="jP-44_YjTH0RPXP_Xvoh-24" value="Vin" style="text;html=1;strokeColor=none;fillColor=none;align=center;verticalAlign=middle;whiteSpace=wrap;rounded=0;fontSize=12;" parent="hd1AN3d5d5kz8yqUC4JS-1" vertex="1">
          <mxGeometry x="706" y="210" width="60" height="30" as="geometry" />
        </mxCell>
        <mxCell id="jP-44_YjTH0RPXP_Xvoh-25" value="" style="endArrow=none;html=1;rounded=0;fontSize=12;exitX=1;exitY=0.217;exitDx=0;exitDy=0;exitPerimeter=0;" parent="hd1AN3d5d5kz8yqUC4JS-1" source="hd1AN3d5d5kz8yqUC4JS-3" edge="1">
          <mxGeometry width="50" height="50" relative="1" as="geometry">
            <mxPoint x="780" y="230" as="sourcePoint" />
            <mxPoint x="840" y="144" as="targetPoint" />
            <Array as="points">
              <mxPoint x="770" y="226" />
              <mxPoint x="770" y="144" />
            </Array>
          </mxGeometry>
        </mxCell>
        <mxCell id="GeWy5mYVpP6EmHYYO-Lp-0" value="" style="endArrow=none;html=1;rounded=0;fontSize=12;" parent="hd1AN3d5d5kz8yqUC4JS-1" edge="1">
          <mxGeometry width="50" height="50" relative="1" as="geometry">
            <mxPoint x="780" y="280" as="sourcePoint" />
            <mxPoint x="770" y="220" as="targetPoint" />
            <Array as="points">
              <mxPoint x="810" y="280" />
              <mxPoint x="810" y="220" />
            </Array>
          </mxGeometry>
        </mxCell>
        <mxCell id="l9ZAwDyIajXQFx4ZyurV-0" value="UART" style="rounded=1;whiteSpace=wrap;html=1;fillColor=#f8cecc;strokeColor=#b85450;" vertex="1" parent="hd1AN3d5d5kz8yqUC4JS-1">
          <mxGeometry x="565" y="330" width="60" height="60" as="geometry" />
        </mxCell>
        <mxCell id="l9ZAwDyIajXQFx4ZyurV-1" value="GSM MODULE" style="rounded=1;whiteSpace=wrap;html=1;fillColor=#d5e8d4;strokeColor=#82b366;" vertex="1" parent="hd1AN3d5d5kz8yqUC4JS-1">
          <mxGeometry x="535" y="459" width="120" height="60" as="geometry" />
        </mxCell>
        <mxCell id="l9ZAwDyIajXQFx4ZyurV-2" value="" style="endArrow=classic;html=1;rounded=0;exitX=0.5;exitY=1;exitDx=0;exitDy=0;entryX=0.5;entryY=0;entryDx=0;entryDy=0;" edge="1" parent="hd1AN3d5d5kz8yqUC4JS-1" source="l9ZAwDyIajXQFx4ZyurV-0" target="l9ZAwDyIajXQFx4ZyurV-1">
          <mxGeometry width="50" height="50" relative="1" as="geometry">
            <mxPoint x="670" y="490" as="sourcePoint" />
            <mxPoint x="720" y="440" as="targetPoint" />
          </mxGeometry>
        </mxCell>
      </root>
    </mxGraphModel>
  </diagram>
  <diagram id="nvWrYQjApw5zHA3KwJAQ" name="Page-3">
    <mxGraphModel dx="1195" dy="703" grid="1" gridSize="10" guides="1" tooltips="1" connect="1" arrows="1" fold="1" page="1" pageScale="1" pageWidth="1169" pageHeight="827" math="0" shadow="0">
      <root>
        <mxCell id="0" />
        <mxCell id="1" parent="0" />
      </root>
    </mxGraphModel>
  </diagram>
</mxfile>
